<svg width="111" height="20" viewBox="0 0 111 20" fill="none" xmlns="http://www.w3.org/2000/svg" class="style_logo__LlGIF"><path d="M71.4951 19.9983H68.5536L64.3197 13.6317C64.2499 13.6368 64.1768 13.6368 64.1055 13.6368H56.5148V11.1868H64.1055C66.5106 11.1868 68.4672 9.23013 68.4672 6.82344C68.4672 4.41662 66.5106 2.46172 64.1055 2.46172H56.5098V0.0117188H64.1055C67.8593 0.0117188 70.9155 3.06632 70.9155 6.82171C70.9155 9.59395 69.2512 11.9824 66.8709 13.0455L71.4951 19.9966V19.9983Z" fill="white"></path><path d="M50.3661 11.1768H52.8161V17.0799C52.7811 17.1182 52.743 17.153 52.7064 17.1846C50.0771 19.6495 47.7251 19.9966 45.5676 19.9966C42.7539 19.9966 39.9518 18.495 38.0715 15.9803C36.1299 13.3843 35.6017 9.68523 36.7261 6.55769C37.8141 3.53631 40.8553 0.0117188 45.8533 0.0117188C50.1153 0.0117188 52.0221 1.87706 53.0469 2.88029C53.1516 2.97995 53.2462 3.07296 53.3376 3.1576L51.6749 4.95651C51.5703 4.85844 51.4574 4.74882 51.3345 4.62923C50.3993 3.7141 49.1154 2.45999 45.8533 2.45999C42.126 2.45999 39.8472 5.11264 39.03 7.38644C38.1745 9.75832 38.5682 12.5554 40.0315 14.512C41.4517 16.4122 43.5213 17.5467 45.5642 17.5467C47.0591 17.5467 48.5556 17.4138 50.3627 15.9721V11.1752L50.3661 11.1768Z" fill="white"></path><path d="M89.4211 0L83.0728 16.4171L76.7246 0H74.0039L81.7656 19.9948H83.0728H84.3799L92.1433 0H89.4211Z" fill="white"></path><path d="M102.1 2.46329H95.8359V0H110.831V2.46329H104.568V19.9948H102.1V2.46329Z" fill="white"></path><path d="M19.9201 8.77717C19.97 9.17913 19.9948 9.58773 19.9948 10.0014C19.9948 15.5125 15.5118 19.9987 9.99734 19.9987C4.4829 19.9987 0 15.5125 0 10.0014C0 4.49026 4.48623 0.00390625 9.99734 0.00390625V2.45391C5.83667 2.45391 2.45 5.84057 2.45 10.0014C2.45 14.1621 5.83667 17.5488 9.99734 17.5488C13.7412 17.5488 16.8573 14.8065 17.4436 11.2255H10.0157C9.96585 10.8252 9.94086 10.4149 9.94086 10.0014C9.94086 9.58773 9.96585 9.17913 10.0157 8.77717C10.6154 3.87903 14.7727 0.0670215 19.8138 0.00722637V2.45723C16.1247 2.51703 13.0701 5.23598 12.4939 8.77717H19.9217H19.9201Z" fill="white"></path><path d="M29.9332 9.87674H27.4816C27.4169 5.81572 24.1233 2.52194 20.0605 2.4555V0.00390625C25.4736 0.0720726 29.8652 4.46196 29.9332 9.87674Z" fill="#2946A7"></path><path d="M27.4818 10.125H29.9334C29.8652 15.558 25.4371 19.9646 19.9941 19.9978V17.5462C24.0884 17.5163 27.417 14.2093 27.4818 10.125Z" fill="#21B5F5"></path></svg>